<?xml version="1.0" standalone="no"?>
<!DOCTYPE svg PUBLIC "-//W3C//DTD SVG 20010904//EN"
 "http://www.w3.org/TR/2001/REC-SVG-20010904/DTD/svg10.dtd">
<svg version="1.0" xmlns="http://www.w3.org/2000/svg"
 width="512.000000pt" height="512.000000pt" viewBox="0 0 512.000000 512.000000"
 preserveAspectRatio="xMidYMid meet">
<metadata>
Created by potrace 1.14, written by Peter Selinger 2001-2017
</metadata>
<g transform="translate(0.000000,512.000000) scale(0.100000,-0.100000)"
fill="#000000" stroke="none">
<path d="M3199 5068 c-85 -93 -127 -259 -130 -508 -1 -72 8 -210 17 -280 3
-25 8 -70 9 -100 5 -70 14 -129 25 -155 48 -118 88 -202 102 -220 16 -21 16
-25 2 -54 -11 -22 -14 -44 -10 -69 4 -20 8 -53 10 -72 2 -19 5 -38 5 -42 2
-18 46 -46 81 -52 44 -7 90 -25 90 -36 0 -15 138 -150 153 -150 8 0 17 -5 19
-11 2 -6 20 -13 39 -15 62 -7 129 68 129 145 0 33 -19 81 -32 81 -4 0 -8 8 -8
18 0 14 -2 15 -10 2 -12 -19 -21 -9 -29 32 -6 30 -10 33 -50 36 -34 3 -41 6
-36 19 3 9 1 20 -6 23 -7 5 -1 19 18 41 33 40 73 102 91 142 7 15 17 25 22 22
6 -3 10 5 10 19 0 14 5 26 11 26 7 0 9 -26 7 -74 -2 -60 0 -72 11 -68 11 4 12
-2 8 -29 -8 -39 10 -105 43 -164 29 -51 55 -73 96 -81 19 -3 34 -10 34 -14 0
-4 13 -10 29 -13 25 -5 84 -39 118 -67 7 -5 37 -10 67 -10 51 0 57 -3 80 -33
15 -19 26 -39 26 -46 0 -7 13 -26 30 -44 16 -18 30 -37 30 -43 0 -6 19 -21 42
-34 34 -19 55 -24 101 -22 l58 3 20 -43 c39 -81 52 -103 76 -125 12 -12 23
-26 23 -30 0 -5 14 -17 30 -26 17 -10 30 -15 30 -11 0 3 6 2 13 -3 6 -6 24 -9
38 -8 36 2 107 37 112 55 3 8 5 -2 6 -23 1 -23 5 -36 11 -32 6 4 7 12 4 18 -4
7 -3 8 2 4 4 -4 7 -24 5 -43 -3 -37 6 -66 42 -145 24 -52 70 -89 109 -89 29 0
78 35 78 56 0 8 5 14 10 14 6 0 10 38 10 95 0 76 -3 99 -17 115 -10 11 -21 30
-24 43 -3 12 -10 21 -15 20 -5 -1 -9 15 -10 35 -1 51 -13 272 -19 357 -17 231
-16 250 18 317 40 82 41 171 2 230 -14 21 -25 45 -25 54 0 13 -3 14 -15 4 -13
-11 -15 -4 -16 51 -1 186 -11 378 -21 409 -12 37 -37 62 -52 53 -12 -8 -26 17
-26 49 0 15 -7 33 -15 42 -17 17 -45 11 -45 -9 0 -7 -16 -30 -35 -51 l-36 -39
5 -90 c3 -49 7 -130 11 -180 4 -72 3 -84 -6 -62 -7 17 -16 26 -24 23 -7 -2
-16 2 -19 10 -3 8 -12 14 -21 14 -8 0 -15 5 -15 10 0 15 -51 70 -66 70 -6 0
-14 7 -18 15 -3 9 -18 15 -39 15 -25 0 -38 -7 -55 -30 -12 -16 -22 -34 -22
-40 0 -5 -4 -10 -10 -10 -5 0 -10 -9 -10 -19 0 -11 -5 -23 -11 -27 -9 -5 -10
3 -5 29 4 19 3 37 -2 39 -5 1 -16 17 -24 33 -8 17 -20 29 -26 28 -7 -2 -12 4
-12 12 0 8 -6 15 -13 15 -14 0 -47 35 -47 49 0 15 -48 41 -75 41 -28 0 -75
-26 -75 -43 0 -5 -11 -25 -25 -43 -14 -18 -25 -42 -25 -53 0 -11 -5 -23 -12
-27 -8 -5 -9 6 -5 41 8 54 -12 107 -49 131 -12 9 -29 33 -38 55 -15 38 -32 48
-51 30 -16 -14 -113 -19 -126 -7 -8 8 -13 8 -16 -2 -9 -24 -23 0 -23 40 l0 41
-37 -8 c-21 -4 -50 -9 -65 -12 -17 -3 -28 -1 -28 6 0 6 4 11 9 11 6 0 6 11 1
28 -5 15 -23 71 -40 125 -39 125 -80 201 -109 205 -17 3 -20 8 -15 24 3 12 2
18 -3 15 -5 -3 -30 13 -55 37 -62 60 -76 66 -158 66 l-72 0 -49 -52z m214
-278 c9 -11 14 -20 11 -20 -4 0 -1 -7 6 -15 6 -8 8 -20 4 -26 -4 -8 -3 -9 4
-5 13 8 17 -16 13 -67 -2 -18 2 -27 11 -25 17 4 25 -93 27 -342 1 -200 -4
-238 -42 -308 -15 -27 -23 -33 -45 -30 -17 2 -26 8 -24 17 2 7 -6 32 -16 55
-39 83 -71 435 -53 586 16 139 19 157 31 180 14 26 51 26 73 0z m898 -624 c9
-20 8 -27 -10 -45 -12 -12 -21 -31 -21 -43 0 -13 -4 -29 -9 -37 -7 -11 -11 -9
-20 8 -9 16 -9 32 0 64 21 80 40 97 60 53z m498 -443 c-1 -50 -3 -60 -8 -38
-6 25 -7 54 -2 98 1 4 3 7 6 7 3 0 5 -30 4 -67z m-341 -37 c12 -4 22 -11 22
-16 0 -5 8 -16 17 -26 13 -13 14 -19 5 -22 -8 -2 -12 -32 -12 -98 0 -52 -4
-94 -8 -94 -4 0 -16 20 -26 45 -18 43 -38 57 -51 35 -3 -5 -13 -10 -22 -10
-13 0 -13 3 -2 16 9 11 9 18 2 22 -6 4 -17 36 -24 71 -11 57 -10 65 5 76 17
13 55 13 94 1z"/>
<path d="M355 4794 c-32 -13 -67 -24 -77 -24 -9 0 -20 -4 -23 -10 -3 -5 -20
-10 -36 -10 -51 0 -69 -27 -71 -106 -1 -58 3 -117 10 -182 1 -6 8 -11 15 -10
7 2 11 -5 9 -17 -2 -11 -5 -119 -8 -240 -3 -121 -9 -233 -13 -250 -4 -16 -8
-113 -10 -215 -1 -102 -6 -198 -11 -215 -5 -16 -11 -102 -14 -190 -7 -227 -24
-375 -47 -400 -22 -24 -44 -154 -29 -169 6 -6 10 -23 10 -38 0 -30 31 -68 55
-68 8 0 15 -6 15 -12 0 -8 3 -9 8 -3 4 6 24 19 44 29 21 10 50 33 66 50 16 18
45 45 64 61 55 46 82 105 75 168 -3 29 -14 72 -25 97 -12 24 -19 47 -17 50 2
4 7 85 10 181 3 96 10 221 15 279 10 111 11 114 79 160 11 8 21 20 21 26 0 7
4 14 8 16 14 6 49 62 56 91 27 111 30 -148 4 -421 -8 -96 -15 -126 -28 -135
-21 -15 -37 -132 -20 -152 6 -7 10 -17 9 -21 -3 -20 2 -32 25 -57 20 -21 30
-25 62 -21 22 3 48 15 62 30 14 13 43 34 64 46 21 12 38 27 38 34 0 7 8 19 19
26 10 7 19 16 19 21 1 4 5 19 8 33 4 15 -2 56 -16 100 -21 72 -22 112 -6 194
2 14 5 58 5 98 1 46 5 72 12 72 8 0 10 -28 7 -94 -4 -67 -2 -93 6 -90 7 3 11
-15 12 -51 1 -46 8 -65 37 -109 31 -47 42 -55 76 -61 56 -9 98 8 151 60 25 25
48 45 52 45 5 0 8 13 8 29 0 17 5 33 10 36 6 4 10 -32 10 -99 0 -70 4 -106 11
-106 7 0 8 -14 4 -39 -8 -48 17 -112 63 -157 27 -28 37 -31 85 -30 31 1 63 8
73 16 10 8 23 18 29 22 80 58 116 106 165 218 42 96 62 169 76 285 10 84 24
101 106 127 50 16 76 31 90 51 29 40 34 99 14 142 -19 40 -19 43 -17 230 3
207 14 248 24 85 12 -219 13 -234 21 -265 10 -40 37 -95 48 -95 4 0 8 -6 8
-13 0 -14 55 -59 80 -65 57 -14 140 8 178 46 37 37 57 43 78 23 25 -23 72 -39
109 -36 58 4 64 5 77 18 7 7 34 25 59 40 l45 27 34 -25 c19 -14 36 -29 39 -34
18 -27 140 -30 172 -3 8 7 26 21 42 33 15 11 27 29 27 40 0 10 4 19 9 19 11 0
26 40 41 108 14 62 7 249 -9 265 -6 6 -11 19 -11 29 0 10 -5 18 -12 18 -6 0
-8 3 -5 7 4 3 1 16 -7 27 -14 23 -10 86 6 86 5 0 6 5 3 10 -3 6 -1 10 5 10 10
0 8 113 -3 155 -3 11 -6 26 -6 33 -1 7 -19 30 -41 52 -22 22 -40 44 -40 50 0
5 -6 10 -14 10 -8 0 -16 5 -18 12 -3 8 -27 12 -65 13 -69 0 -96 -16 -120 -72
-7 -18 -17 -33 -22 -33 -5 0 -12 -8 -14 -17 -2 -10 -2 -2 0 17 4 27 2 32 -7
23 -9 -8 -17 -6 -31 8 -10 10 -19 24 -19 29 0 18 -64 50 -98 50 -19 0 -48 -7
-65 -15 -37 -18 -87 -94 -87 -131 0 -35 -24 -25 -30 12 -4 19 -8 25 -13 17
-11 -18 -24 -16 -31 5 -19 57 -51 81 -106 82 -42 0 -49 -4 -81 -42 -20 -24
-41 -53 -48 -65 -13 -26 -31 -30 -31 -8 0 8 -6 15 -14 15 -8 0 -16 16 -20 40
-5 31 -11 40 -26 40 -21 0 -62 -37 -75 -67 -8 -17 -8 -17 -12 2 -3 11 -12 25
-20 32 -13 10 -23 6 -57 -20 -22 -18 -42 -35 -44 -39 -6 -13 -64 -36 -102 -41
-35 -5 -100 24 -100 44 0 15 -57 10 -64 -6 -3 -8 -11 -15 -18 -15 -19 0 -78
-56 -78 -74 0 -9 -4 -16 -8 -16 -4 0 -16 -24 -26 -52 -11 -29 -23 -57 -27 -62
-5 -6 -9 -28 -10 -50 l-1 -41 -14 44 c-15 48 -42 80 -62 73 -7 -2 -12 5 -12
16 0 56 -120 83 -171 39 -31 -27 -79 -92 -79 -106 0 -9 -13 -38 -28 -61 -2 -2
-7 2 -12 10 -8 12 -10 11 -10 -5 -1 -41 -20 9 -20 53 0 34 -3 42 -18 42 -31 0
-50 -23 -71 -85 l-20 -60 -1 48 c0 55 -18 63 -56 22 -28 -30 -39 -32 -24 -5
20 37 -8 310 -32 310 -4 0 -8 7 -8 15 0 8 -4 15 -10 15 -5 0 -11 10 -11 23 -1
16 -2 18 -6 5 -6 -24 -33 -23 -33 1 0 25 -65 81 -93 80 -12 0 -49 -12 -82 -25z
m49 -359 c8 -23 -6 -295 -16 -301 -4 -3 -8 -18 -8 -34 0 -35 -9 -60 -22 -60
-6 0 -8 20 -3 53 3 28 8 106 11 172 2 66 7 135 10 153 5 34 18 42 28 17z
m1011 -167 c-4 -35 -7 -71 -7 -80 0 -10 -3 -18 -9 -18 -13 0 -11 87 3 127 7
18 14 33 16 33 3 0 1 -28 -3 -62z m834 -118 c0 -46 -15 -137 -18 -110 -1 12
-5 11 -16 -4 -18 -24 -19 -11 -4 33 19 54 -21 81 -61 41 -11 -11 -28 -20 -37
-20 -17 1 -17 1 -1 14 10 7 15 16 12 19 -13 12 18 47 41 47 14 0 25 5 25 11 0
6 7 9 14 6 9 -4 18 2 22 15 10 32 24 2 23 -52z m81 14 c0 -21 -4 -33 -10 -29
-5 3 -10 19 -10 36 0 16 5 29 10 29 6 0 10 -16 10 -36z m-693 -155 c-2 -43
-10 -63 -32 -92 -29 -35 -30 -36 -38 -15 -4 13 -13 25 -18 29 -12 7 -9 13 45
110 15 26 23 59 26 114 2 19 6 9 12 -30 5 -33 7 -85 5 -116z m772 90 c-24 -15
-30 -10 -11 9 9 10 19 14 21 9 2 -5 -3 -13 -10 -18z m-1365 4 c4 -9 4 -35 1
-57 -3 -23 -10 -102 -15 -176 -10 -146 -27 -240 -40 -221 -4 7 -3 32 1 57 5
24 7 68 5 97 -3 62 10 276 20 300 8 22 20 22 28 0z m1691 -3 c3 -5 1 -10 -4
-10 -6 0 -11 5 -11 10 0 6 2 10 4 10 3 0 8 -4 11 -10z m-2168 -177 c-3 -10 -5
-4 -5 12 0 17 2 24 5 18 2 -7 2 -21 0 -30z m233 -23 c0 -27 -4 -50 -10 -50
-11 0 -14 59 -4 84 10 27 14 18 14 -34z m397 -332 c-3 -8 -6 -5 -6 6 -1 11 2
17 5 13 3 -3 4 -12 1 -19z m247 -65 c-9 -52 -50 -136 -74 -151 -22 -13 -27 -3
-9 15 7 7 16 35 20 64 6 37 16 61 36 80 15 15 29 27 31 28 2 1 0 -16 -4 -36z
m-267 5 c-3 -8 -6 -5 -6 6 -1 11 2 17 5 13 3 -3 4 -12 1 -19z"/>
<path d="M383 4210 c0 -25 2 -35 4 -22 2 12 2 32 0 45 -2 12 -4 2 -4 -23z"/>
<path d="M1872 4040 c0 -14 2 -19 5 -12 2 6 2 18 0 25 -3 6 -5 1 -5 -13z"/>
<path d="M1820 3480 c0 -5 -9 -10 -19 -10 -10 0 -45 -14 -77 -31 -76 -39 -92
-62 -53 -72 20 -5 20 -10 17 -287 -3 -265 -4 -282 -22 -296 -18 -12 -10 -14
69 -14 79 0 87 2 69 14 -18 14 -19 27 -17 281 3 243 5 269 23 310 15 33 28 46
48 51 15 3 34 8 43 10 28 8 69 -14 80 -43 15 -39 -5 -77 -51 -98 -21 -9 -53
-31 -71 -47 l-32 -30 46 -23 c63 -33 134 -101 160 -155 35 -75 29 -148 -21
-249 -23 -46 -42 -85 -42 -87 0 -2 7 -1 15 2 8 4 15 10 15 15 0 5 16 23 35 40
55 49 88 130 89 219 0 64 -4 85 -31 142 -19 40 -42 73 -60 84 -15 10 -30 22
-33 26 -3 4 -17 11 -30 17 -24 9 -22 10 35 37 33 15 62 31 63 36 2 4 15 8 28
8 l24 0 -16 43 c-14 36 -40 67 -91 107 -16 13 -193 13 -193 0z"/>
<path d="M2560 3322 c0 -4 -21 -19 -47 -32 -41 -20 -44 -25 -25 -28 l22 -3 0
-229 c0 -194 -2 -231 -16 -244 -14 -15 -11 -16 36 -16 47 0 50 1 36 16 -13 13
-16 43 -16 173 0 87 3 173 6 190 l6 31 34 -55 c18 -31 36 -64 39 -75 9 -29 29
-24 48 13 78 150 79 149 75 -69 -3 -172 -5 -194 -22 -213 l-19 -21 76 0 c43 0
77 3 77 6 0 3 -7 13 -16 21 -14 15 -15 43 -9 252 5 185 10 238 21 247 25 20
15 25 -42 22 l-57 -3 -26 -50 c-14 -28 -33 -61 -43 -74 l-16 -23 -18 27 c-29
45 -54 88 -67 118 -10 24 -37 38 -37 19z"/>
<path d="M3273 3305 c-26 -26 -29 -35 -9 -35 16 0 26 -21 26 -53 0 -21 -40
-92 -40 -72 0 6 -22 26 -49 45 -27 19 -59 49 -71 67 -13 18 -26 33 -29 33 -7
0 -61 -109 -61 -122 0 -5 7 -8 15 -8 8 0 15 -4 15 -9 0 -5 12 -12 28 -16 15
-3 42 -16 60 -27 26 -16 31 -24 26 -42 -4 -11 -10 -23 -13 -26 -4 -3 -28 -32
-54 -64 -75 -93 -94 -157 -61 -204 15 -21 16 -21 47 -6 18 9 34 18 36 20 1 1
-6 13 -18 25 -23 25 -26 45 -11 85 14 35 108 144 125 144 27 0 71 -49 88 -98
21 -58 13 -111 -29 -174 -38 -59 -28 -67 19 -16 53 56 82 138 73 204 -7 51
-35 111 -65 138 -25 23 -26 32 -5 71 26 47 33 92 21 130 -12 40 -31 44 -64 10z"/>
<path d="M2160 3301 c0 -5 7 -11 15 -14 12 -5 10 -17 -12 -69 -22 -54 -25 -73
-20 -138 3 -45 14 -98 28 -133 43 -104 153 -197 234 -196 l30 0 -41 22 c-79
42 -132 128 -154 245 -17 98 1 124 76 103 41 -11 58 -4 67 29 5 18 0 20 -64
20 -38 0 -69 2 -69 5 0 16 46 87 62 96 32 17 79 1 91 -32 6 -16 15 -29 19 -29
6 0 48 84 48 96 0 2 -70 4 -155 4 -85 0 -155 -4 -155 -9z"/>
<path d="M2890 3307 c0 -2 7 -19 16 -37 15 -28 16 -59 9 -254 -5 -179 -10
-224 -22 -238 -15 -17 -12 -18 62 -18 76 0 78 0 61 19 -16 17 -17 43 -14 255
2 171 6 238 16 248 23 23 12 28 -58 28 -38 0 -70 -2 -70 -3z"/>
<path d="M1013 3015 c-13 -19 -23 -39 -23 -43 0 -5 -12 -31 -26 -58 -112 -209
-127 -245 -104 -259 6 -4 8 -25 4 -53 -5 -43 -3 -51 28 -89 31 -38 123 -103
147 -103 6 0 11 -6 11 -13 0 -6 21 -23 47 -37 26 -14 55 -32 64 -41 9 -9 48
-34 85 -55 38 -21 70 -41 72 -46 2 -4 29 -22 60 -40 31 -17 63 -38 70 -45 7
-7 34 -25 60 -40 26 -15 56 -35 66 -45 11 -10 29 -21 39 -24 11 -4 30 -15 41
-25 11 -11 26 -19 33 -19 7 0 13 -4 13 -9 0 -5 25 -24 55 -41 30 -17 55 -35
55 -38 0 -4 34 -25 75 -47 41 -22 77 -46 80 -54 3 -8 -4 -21 -16 -30 -12 -9
-29 -23 -39 -31 -17 -15 -32 -25 -97 -61 -19 -11 -44 -28 -55 -39 -12 -11 -43
-30 -69 -42 -27 -13 -49 -28 -49 -34 0 -21 -38 -23 -52 -2 -10 15 -29 20 -85
25 -68 5 -73 4 -96 -21 -18 -19 -26 -41 -30 -85 -6 -73 -27 -106 -89 -137 -26
-13 -48 -28 -48 -32 0 -4 -12 -13 -27 -19 -43 -19 -85 -46 -116 -75 -15 -14
-43 -33 -60 -42 -18 -8 -43 -24 -56 -35 -13 -12 -31 -21 -41 -21 -9 0 -22 -6
-29 -12 -11 -11 -13 -10 -8 3 6 19 -18 59 -36 59 -7 0 -34 23 -60 50 -44 47
-49 50 -68 36 -30 -21 -65 -76 -78 -121 -9 -32 -8 -42 5 -56 10 -11 13 -23 8
-31 -11 -18 -6 -60 17 -125 10 -31 19 -57 19 -58 0 -7 -70 -75 -77 -75 -17 0
-69 -29 -96 -54 -15 -14 -35 -27 -46 -31 -11 -3 -36 -17 -56 -31 -44 -30 -86
-25 -124 12 -13 13 -31 24 -41 24 -23 0 -49 -30 -56 -67 -4 -22 -15 -35 -35
-43 -20 -9 -37 -29 -55 -68 -23 -48 -26 -64 -20 -114 5 -47 3 -58 -9 -58 -24
0 -28 -43 -10 -98 22 -66 81 -150 125 -179 19 -12 41 -28 48 -34 16 -13 162
-15 171 -2 3 6 29 18 56 28 55 21 72 39 97 104 18 47 44 81 63 81 6 0 29 16
50 34 21 19 62 47 89 62 28 15 54 32 58 38 5 7 8 6 8 -4 0 -10 3 -11 8 -4 4 6
17 13 30 17 18 4 32 -3 63 -36 21 -23 42 -50 45 -59 8 -26 86 -60 122 -53 55
9 81 24 96 53 16 30 22 103 13 156 -4 23 1 36 23 55 49 47 94 81 106 81 7 0
25 13 41 28 16 16 44 37 64 46 20 9 45 25 56 35 28 26 87 43 125 36 18 -4 56
-8 83 -9 93 -5 159 70 173 194 6 59 10 66 42 86 19 12 46 33 60 46 14 13 42
31 62 41 20 10 43 23 50 30 19 18 113 77 124 77 5 0 20 12 33 25 13 14 27 25
32 25 9 0 69 39 79 51 3 4 32 21 65 40 33 18 62 37 63 41 5 11 82 10 82 0 0
-5 18 -17 40 -27 23 -10 51 -28 64 -39 23 -21 38 -31 102 -67 18 -10 42 -27
54 -39 11 -11 24 -20 30 -20 9 0 72 -39 97 -60 7 -5 35 -23 62 -39 27 -17 59
-38 70 -48 12 -10 30 -26 41 -36 11 -9 20 -13 20 -7 0 6 5 10 10 10 6 0 10
-10 10 -23 0 -13 3 -26 6 -29 3 -4 7 -30 9 -60 3 -55 16 -89 50 -124 47 -49
76 -55 204 -41 40 4 88 -7 101 -24 3 -3 32 -21 65 -40 33 -18 67 -41 77 -51 9
-9 32 -25 50 -34 18 -9 46 -30 62 -45 16 -16 32 -27 35 -25 3 2 6 -17 7 -42 2
-173 26 -215 128 -228 34 -5 116 31 116 50 0 7 9 24 21 37 12 13 27 33 35 43
14 21 80 27 93 9 3 -5 24 -17 46 -28 43 -19 87 -49 116 -77 10 -9 32 -24 49
-33 29 -15 70 -85 70 -119 0 -18 30 -40 85 -60 28 -11 53 -24 56 -29 4 -5 42
-9 85 -9 59 1 80 4 86 16 5 9 14 16 19 16 42 0 123 103 149 190 19 63 12 111
-25 170 -21 34 -38 69 -68 140 -18 42 -64 93 -80 87 -7 -2 -13 -13 -15 -25 -5
-31 -20 -27 -28 6 -17 71 -53 90 -94 48 -32 -35 -76 -43 -109 -19 -14 10 -39
25 -56 33 -16 8 -32 17 -35 20 -17 17 -100 70 -110 70 -14 0 -9 34 21 145 12
48 19 95 16 118 -6 43 -53 121 -67 112 -6 -4 -10 -2 -10 2 0 11 -90 103 -101
103 -15 0 -89 -107 -89 -129 0 -13 -9 -26 -25 -33 -20 -9 -31 -8 -60 8 -19 10
-35 21 -35 25 0 3 -25 19 -56 35 -31 16 -66 38 -78 50 -11 11 -43 33 -71 49
-54 31 -117 84 -111 94 3 4 -4 29 -14 58 -12 35 -35 68 -76 108 l-58 58 -70
-6 c-47 -4 -75 -11 -82 -22 -12 -16 -44 -21 -44 -5 0 5 -27 25 -61 45 -33 19
-67 42 -75 50 -8 8 -30 22 -49 31 -19 9 -51 32 -72 51 l-37 35 27 15 c15 7 27
18 27 23 0 4 25 21 56 37 30 15 64 36 74 45 20 19 69 50 110 70 14 7 28 18 32
24 5 7 34 27 65 44 32 18 60 36 63 39 3 4 30 22 60 40 30 19 57 37 60 41 3 4
31 22 63 40 31 17 57 35 57 40 0 4 19 17 43 29 56 27 100 53 112 67 5 7 30 24
55 39 25 16 47 31 50 35 3 4 34 24 70 44 63 37 73 46 107 94 27 38 18 101 -29
199 -23 48 -49 99 -58 113 -10 14 -23 42 -29 62 -8 25 -22 41 -42 50 -16 7
-29 16 -29 20 0 4 -15 24 -34 44 -29 31 -38 36 -62 30 -15 -4 -40 -16 -55 -27
-15 -10 -32 -19 -38 -19 -6 0 -11 -7 -11 -15 0 -8 -7 -15 -15 -15 -15 0 -77
-37 -107 -64 -10 -9 -22 -16 -28 -16 -5 0 -10 -3 -10 -7 0 -5 -28 -21 -63 -38
-34 -16 -66 -35 -72 -42 -5 -6 -32 -23 -58 -38 -27 -15 -57 -35 -67 -45 -10
-10 -34 -26 -53 -35 -19 -9 -44 -25 -55 -35 -11 -11 -36 -28 -55 -39 -65 -36
-80 -46 -103 -67 -12 -11 -41 -29 -63 -40 -23 -10 -41 -22 -41 -26 0 -4 -29
-23 -65 -43 -36 -20 -65 -41 -65 -46 0 -5 -7 -9 -15 -9 -8 0 -15 -3 -15 -8 0
-4 -14 -13 -32 -21 -17 -8 -40 -23 -50 -33 -11 -11 -45 -33 -76 -50 -31 -17
-61 -36 -67 -42 -5 -6 -34 -26 -62 -45 -29 -18 -53 -37 -53 -42 0 -11 -50 -12
-50 -1 0 4 -27 23 -60 42 -33 19 -60 38 -60 42 0 3 -29 23 -65 43 -36 20 -65
40 -65 44 0 5 -8 11 -17 14 -27 9 -101 55 -125 77 -11 10 -36 26 -55 35 -19 9
-43 25 -53 35 -10 10 -40 30 -67 45 -26 15 -52 32 -58 38 -5 7 -27 21 -48 32
-22 11 -49 29 -61 40 -12 11 -43 31 -69 44 -26 13 -52 30 -58 38 -6 7 -17 13
-24 13 -7 0 -15 7 -19 15 -3 8 -12 15 -21 15 -8 0 -15 3 -15 8 0 4 -14 13 -30
20 -17 8 -36 20 -43 27 -7 7 -41 27 -75 45 -34 18 -66 38 -70 44 -4 7 -27 23
-52 37 -25 13 -46 27 -48 32 -2 4 -10 7 -18 7 -8 0 -14 5 -14 10 0 14 -118 70
-145 70 -12 0 -29 -15 -42 -35z m115 -15 c7 0 12 -6 12 -13 0 -7 25 -26 56
-42 31 -16 59 -35 61 -42 3 -7 9 -13 15 -13 5 0 34 -16 64 -35 30 -19 59 -35
64 -35 6 0 10 -4 10 -9 0 -5 26 -24 58 -42 31 -18 62 -38 67 -45 6 -6 36 -25
67 -43 31 -17 58 -35 60 -39 2 -5 29 -23 61 -41 31 -18 57 -36 57 -40 0 -4 25
-19 56 -35 30 -15 63 -36 72 -46 9 -9 40 -29 67 -44 28 -15 55 -33 60 -39 6
-7 27 -21 48 -32 22 -11 50 -30 63 -42 14 -13 27 -23 30 -23 3 0 30 -16 60
-35 30 -19 59 -35 64 -35 6 0 10 -4 10 -9 0 -9 96 -71 111 -71 5 0 9 -4 9 -9
0 -5 25 -22 55 -37 30 -16 55 -34 55 -40 0 -7 12 -19 28 -27 91 -48 118 -64
139 -82 12 -11 40 -29 60 -40 21 -11 40 -22 43 -25 3 -3 32 -23 65 -45 33 -22
62 -44 63 -48 2 -4 30 -21 63 -37 32 -17 59 -34 59 -38 0 -4 15 -14 33 -21 33
-15 78 -44 109 -71 9 -9 41 -28 70 -44 29 -16 57 -34 63 -41 5 -7 30 -24 55
-37 51 -27 121 -88 101 -88 -16 0 -81 39 -81 48 0 4 -29 23 -65 41 -36 19 -65
38 -65 42 0 4 -30 24 -67 45 -38 21 -72 43 -78 49 -5 7 -32 25 -60 40 -27 16
-54 34 -60 40 -5 7 -32 25 -60 40 -27 16 -52 31 -55 34 -9 12 -90 61 -98 61
-5 0 -20 11 -33 24 -13 13 -48 36 -76 52 -29 15 -53 31 -53 36 0 4 -23 19 -50
33 -28 14 -59 33 -68 43 -10 9 -35 26 -56 37 -21 11 -48 29 -61 40 -22 20 -38
30 -104 67 -20 11 -38 24 -41 28 -3 4 -34 25 -70 46 -36 21 -69 43 -75 49 -5
7 -32 25 -60 40 -27 16 -57 36 -67 44 -9 9 -42 29 -72 45 -31 16 -56 33 -56
37 0 4 -27 22 -60 41 -33 18 -60 36 -60 40 0 3 -21 17 -46 30 -26 12 -56 33
-68 45 -11 13 -24 23 -28 23 -9 0 -111 61 -118 71 -3 3 -30 21 -60 40 -30 18
-57 36 -60 40 -3 4 -34 24 -70 45 -36 21 -69 43 -75 49 -5 7 -32 25 -60 40
-53 30 -74 51 -75 74 0 11 4 11 18 -2 10 -10 24 -17 30 -17z m2793 -3 c-6 -12
-35 -35 -64 -51 -29 -16 -59 -35 -67 -43 -20 -18 -130 -83 -141 -83 -5 0 -9
-4 -9 -9 0 -5 -26 -24 -57 -42 -32 -18 -59 -36 -61 -41 -2 -4 -33 -24 -68 -44
-35 -20 -64 -39 -64 -43 0 -3 -27 -21 -59 -39 -33 -18 -61 -36 -63 -40 -2 -5
-30 -23 -63 -42 -33 -19 -66 -40 -72 -46 -7 -7 -39 -27 -70 -45 -32 -18 -62
-38 -68 -45 -5 -7 -32 -25 -60 -40 -27 -15 -54 -33 -60 -40 -5 -7 -32 -25 -60
-39 -27 -15 -54 -33 -60 -39 -5 -7 -36 -27 -67 -45 -32 -18 -58 -36 -58 -40 0
-4 -18 -16 -40 -26 -31 -14 -43 -16 -52 -7 -9 9 -8 12 3 12 9 0 28 11 44 24
15 13 47 33 71 45 24 13 44 26 44 30 0 4 12 14 28 22 48 24 107 63 115 76 4 7
12 13 18 13 11 0 93 52 97 62 2 4 27 19 55 33 29 14 65 36 82 51 16 14 43 32
60 40 16 7 43 25 59 39 16 14 33 25 37 25 4 0 14 6 21 13 7 6 26 19 43 27 16
8 37 23 47 32 9 10 40 29 68 43 27 14 50 30 50 35 0 6 7 10 15 10 8 0 15 4 15
9 0 5 8 12 19 16 10 3 30 16 43 28 27 25 94 65 121 74 9 3 17 9 17 14 0 5 7 9
15 9 8 0 15 4 15 9 0 5 26 24 58 42 31 18 62 38 67 44 16 19 58 45 64 40 2 -3
-1 -15 -8 -28z m-2897 -136 c-21 -42 -46 -88 -56 -103 -29 -42 -23 -65 21 -88
22 -10 41 -23 43 -28 1 -4 29 -23 61 -41 31 -18 57 -36 57 -39 0 -4 29 -23 65
-41 36 -19 65 -38 65 -42 0 -5 23 -20 50 -34 28 -14 59 -34 69 -44 9 -9 43
-32 74 -50 31 -18 57 -37 57 -42 0 -5 4 -9 9 -9 13 0 134 -72 146 -87 6 -6 33
-24 60 -39 28 -15 53 -31 56 -36 7 -11 65 -45 102 -59 15 -6 27 -15 27 -19 0
-5 29 -25 65 -45 36 -20 65 -39 65 -44 0 -4 28 -22 62 -40 34 -19 73 -44 87
-57 14 -14 45 -34 68 -45 23 -11 43 -24 45 -28 2 -4 29 -22 60 -39 31 -18 58
-36 60 -40 2 -4 30 -23 63 -41 33 -19 62 -36 65 -40 10 -13 66 -48 103 -66 20
-9 37 -21 37 -25 0 -5 25 -22 55 -39 30 -17 55 -35 55 -39 0 -5 34 -26 75 -47
41 -22 75 -42 75 -45 0 -3 26 -21 58 -40 31 -19 65 -42 75 -51 10 -9 35 -25
57 -35 22 -10 40 -23 40 -29 0 -5 30 -26 66 -45 96 -51 164 -106 156 -128 -2
-7 -11 -4 -25 9 -12 11 -39 29 -59 40 -21 11 -38 23 -38 27 0 4 -24 20 -54 35
-29 15 -62 36 -73 46 -11 10 -45 33 -77 50 -31 18 -66 41 -76 51 -11 11 -37
28 -60 40 -22 11 -40 24 -40 28 0 5 -23 19 -51 32 -28 13 -61 34 -74 46 -13
12 -50 37 -82 55 -32 18 -59 36 -61 41 -2 4 -33 24 -68 44 -35 20 -64 39 -64
42 0 4 -29 23 -65 41 -36 19 -65 38 -65 42 0 4 -26 22 -57 40 -32 18 -62 39
-66 46 -4 7 -12 13 -17 13 -9 0 -111 61 -120 71 -3 4 -29 21 -57 39 -29 17
-53 36 -53 41 0 5 -4 9 -9 9 -16 0 -131 72 -131 81 0 5 -4 9 -10 9 -10 0 -112
60 -120 71 -3 3 -30 21 -60 40 -30 18 -57 36 -60 40 -3 4 -34 24 -70 45 -36
21 -69 43 -75 49 -5 7 -32 25 -60 40 -27 16 -52 32 -55 36 -3 4 -34 24 -70 45
-36 21 -69 43 -75 49 -5 7 -32 25 -60 40 -27 16 -56 34 -63 41 -7 7 -35 25
-62 40 -28 15 -50 31 -50 35 0 4 -16 16 -35 25 -19 9 -35 23 -35 30 0 27 134
280 138 260 2 -10 -13 -52 -34 -95z m3005 -36 l64 -128 -24 -18 c-13 -10 -32
-25 -41 -33 -10 -9 -42 -30 -73 -47 -30 -17 -55 -34 -55 -38 0 -3 -27 -21 -60
-39 -33 -19 -60 -37 -60 -41 0 -4 -25 -20 -57 -35 -31 -16 -64 -37 -74 -47
-10 -10 -39 -29 -66 -44 -26 -15 -53 -32 -58 -40 -6 -7 -41 -30 -78 -50 -37
-20 -67 -40 -67 -43 0 -4 -29 -23 -65 -42 -36 -19 -65 -38 -65 -42 0 -3 -25
-21 -55 -38 -30 -17 -55 -35 -55 -38 0 -4 -34 -25 -75 -47 -41 -22 -75 -43
-75 -47 0 -3 -26 -21 -57 -39 -32 -18 -61 -37 -65 -43 -5 -7 -8 -5 -8 4 0 13
-1 13 -10 0 -8 -13 -10 -13 -10 2 0 11 19 27 49 43 27 13 62 36 77 50 15 14
31 25 36 25 8 0 67 38 78 51 3 3 19 12 35 21 63 32 88 47 94 55 3 5 31 24 61
42 30 19 57 37 60 40 3 4 31 22 63 40 31 18 63 38 70 45 6 6 37 27 67 45 30
19 57 37 60 41 3 4 35 24 73 45 37 20 67 40 67 44 0 4 20 18 45 31 24 12 53
31 64 41 11 10 35 27 54 38 65 37 80 46 105 68 13 12 33 25 43 28 11 4 19 11
19 17 0 8 -62 137 -106 220 -17 32 -18 41 -2 36 7 -3 42 -62 77 -133z m-1933
-1030 c-22 -19 -55 -40 -73 -47 -18 -7 -33 -17 -33 -23 0 -6 -29 -25 -65 -43
-36 -17 -65 -36 -65 -40 0 -5 -31 -26 -70 -48 -38 -21 -70 -42 -70 -46 0 -3
-26 -21 -57 -39 -32 -18 -60 -35 -63 -39 -12 -14 -69 -50 -81 -50 -28 0 94 99
144 116 9 4 17 11 17 18 0 6 22 21 48 33 26 13 63 36 82 53 19 16 41 30 48 30
6 0 12 5 12 10 0 6 8 10 19 10 10 0 29 11 42 24 13 13 49 36 79 52 30 16 62
37 72 47 10 9 26 17 36 17 12 0 6 -10 -22 -35z m344 -182 c0 -5 -18 -18 -40
-31 -22 -12 -40 -27 -40 -32 0 -6 -4 -10 -9 -10 -11 0 -110 -59 -128 -77 -7
-6 -39 -26 -70 -44 -32 -18 -62 -38 -68 -44 -5 -7 -32 -25 -60 -40 -27 -16
-52 -31 -55 -34 -3 -4 -30 -22 -60 -41 -30 -19 -61 -40 -69 -48 -7 -7 -35 -24
-61 -37 -26 -13 -54 -30 -61 -37 -8 -7 -38 -29 -66 -48 -29 -19 -53 -39 -53
-45 0 -5 -4 -4 -9 4 -6 10 0 22 20 40 59 54 68 61 144 99 17 8 37 23 45 32 8
10 38 30 65 45 28 15 52 31 55 35 3 4 28 20 55 35 28 15 55 33 61 41 6 8 42
30 79 49 37 19 74 44 84 54 9 10 36 29 61 42 25 13 51 32 58 42 7 9 19 17 26
17 8 0 24 9 37 20 24 19 59 27 59 13z m-1001 -205 c-22 -69 -32 -88 -46 -88
-7 0 -16 -7 -20 -15 -6 -17 -54 -45 -75 -45 -7 1 -1 8 15 16 15 8 27 18 27 23
0 4 11 13 25 19 16 7 34 32 49 67 27 61 41 73 25 23z m2151 -21 c0 -20 62 -87
99 -107 13 -6 20 -14 18 -17 -7 -7 -67 26 -67 37 0 5 -9 11 -19 15 -17 5 -62
97 -61 123 1 16 30 -33 30 -51z m-2193 -157 c-17 -24 -102 -90 -116 -90 -6 0
-11 -4 -11 -9 0 -5 -7 -11 -15 -15 -32 -12 4 32 47 57 24 14 56 37 71 51 33
31 43 34 24 6z m2243 -8 c0 -5 21 -21 47 -38 54 -34 122 -93 86 -75 -13 7 -23
16 -23 21 0 6 -7 10 -16 10 -21 0 -100 57 -120 87 -15 24 -15 24 5 13 12 -6
21 -14 21 -18z m175 -30 c-3 -3 -11 0 -18 7 -9 10 -8 11 6 5 10 -3 15 -9 12
-12z m103 -63 c2 -4 25 -21 51 -38 61 -39 103 -114 78 -139 -13 -13 -19 -13
-31 -2 -9 7 -16 19 -16 27 0 30 -41 92 -91 136 -29 26 -57 47 -61 47 -4 0 -8
5 -8 11 0 11 72 -28 78 -42z m-2816 -14 c-32 -30 -69 -76 -81 -102 -33 -70
-35 -74 -45 -76 -5 -1 -13 5 -19 14 -17 28 21 107 63 129 19 10 44 27 55 37
27 25 68 53 77 53 4 0 -18 -25 -50 -55z m-312 -5 c0 -5 -5 -10 -11 -10 -5 0
-7 5 -4 10 3 6 8 10 11 10 2 0 4 -4 4 -10z m3440 0 c0 -5 -4 -10 -10 -10 -5 0
-10 5 -10 10 0 6 5 10 10 10 6 0 10 -4 10 -10z m-377 -56 c-4 -11 -10 -8 -24
10 -26 33 -24 40 5 20 15 -9 22 -21 19 -30z m-2667 21 c-23 -17 -36 -19 -36
-6 0 11 18 19 40 20 11 0 10 -3 -4 -14z m322 -27 c-5 -15 -77 -58 -97 -58 -16
0 24 33 52 43 9 3 17 11 17 17 0 5 7 10 16 10 9 0 14 -6 12 -12z m2012 4 c0
-4 20 -18 45 -31 44 -23 63 -47 28 -34 -56 20 -115 73 -83 73 6 0 10 -3 10 -8z
m-2677 -72 c-3 -10 -11 -25 -19 -31 -17 -14 -17 -9 -4 25 11 30 31 35 23 6z
m3345 -5 c14 -29 -2 -34 -18 -6 -12 24 -13 31 -2 31 5 0 14 -11 20 -25z
m-2604 0 c-4 -8 -14 -15 -23 -15 -9 0 -44 -13 -78 -30 -35 -16 -63 -28 -63
-26 0 2 19 16 43 32 23 16 46 35 50 41 4 7 23 13 42 13 26 0 33 -3 29 -15z
m1913 -3 c10 -10 35 -29 56 -41 67 -40 42 -37 -42 6 -25 12 -56 23 -67 23 -12
0 -24 7 -28 15 -8 23 58 20 81 -3z m-2109 -3 c-2 -6 -8 -10 -13 -10 -5 0 -11
4 -13 10 -2 6 4 11 13 11 9 0 15 -5 13 -11z m2310 -25 c-9 -9 -22 -14 -30 -11
-8 3 -4 8 12 15 35 15 37 14 18 -4z m-2348 -10 c0 -2 -7 -4 -15 -4 -8 0 -15 4
-15 10 0 5 7 7 15 4 8 -4 15 -8 15 -10z m-460 -13 c0 -5 -7 -14 -15 -21 -8 -7
-15 -20 -15 -29 0 -10 -7 -26 -15 -37 -18 -24 -19 -16 -1 27 7 19 16 42 19 52
7 17 27 24 27 8z m3254 -7 c9 -24 7 -28 -9 -14 -17 14 -20 30 -6 30 5 0 12 -7
15 -16z m-2837 0 c-3 -3 -12 -4 -19 -1 -8 3 -5 6 6 6 11 1 17 -2 13 -5z m-44
-29 c-7 -21 -13 -19 -13 6 0 11 4 18 10 14 5 -3 7 -12 3 -20z m2497 3 c0 -19
-2 -20 -10 -8 -13 19 -13 30 0 30 6 0 10 -10 10 -22z m-2674 -45 c-10 -10 -19
5 -10 18 6 11 8 11 12 0 2 -7 1 -15 -2 -18z m139 17 c3 -5 -1 -10 -10 -10 -9
0 -13 5 -10 10 3 6 8 10 10 10 2 0 7 -4 10 -10z m2575 0 c0 -5 -4 -10 -10 -10
-5 0 -10 5 -10 10 0 6 5 10 10 10 6 0 10 -4 10 -10z m374 -40 l6 -35 -14 35
c-17 42 -20 58 -7 45 5 -6 12 -26 15 -45z m-234 30 c0 -5 -4 -10 -10 -10 -5 0
-10 5 -10 10 0 6 5 10 10 10 6 0 10 -4 10 -10z m-2750 -100 c-18 -14 -39 -19
-78 -18 -76 2 -60 22 24 29 38 3 71 6 74 7 3 1 -6 -7 -20 -18z m2749 6 c21
-13 3 -22 -49 -24 -37 -1 -58 3 -74 15 -22 18 -21 18 44 17 37 -1 72 -4 79 -8z
m99 -58 c-5 -14 -38 19 -38 38 0 10 6 8 21 -7 11 -11 19 -25 17 -31z m-3028
33 c0 -5 -8 -17 -17 -27 -21 -20 -31 -2 -11 20 15 17 28 20 28 7z m-735 -121
c-4 -12 -9 -19 -12 -17 -3 3 -2 15 2 27 4 12 9 19 12 17 3 -3 2 -15 -2 -27z
m745 20 c0 -5 -7 -10 -15 -10 -8 0 -15 5 -15 10 0 6 7 10 15 10 8 0 15 -4 15
-10z m3000 0 c0 -5 -7 -10 -15 -10 -8 0 -15 5 -15 10 0 6 7 10 15 10 8 0 15
-4 15 -10z m-3403 -42 c-3 -7 -5 -2 -5 12 0 14 2 19 5 13 2 -7 2 -19 0 -25z
m173 22 c13 -8 13 -10 -2 -10 -9 0 -20 5 -23 10 -8 13 5 13 25 0z m3455 0 c-3
-5 -13 -10 -21 -10 -8 0 -12 5 -9 10 3 6 13 10 21 10 8 0 12 -4 9 -10z m152
-22 c-3 -7 -5 -2 -5 12 0 14 2 19 5 13 2 -7 2 -19 0 -25z m353 11 c0 -6 -4 -7
-10 -4 -5 3 -10 11 -10 16 0 6 5 7 10 4 6 -3 10 -11 10 -16z m-4380 -115 c0
-8 -6 -14 -14 -14 -9 0 -12 7 -9 20 6 22 23 18 23 -6z m4286 -11 c-11 -11 -19
6 -11 24 8 17 8 17 12 0 3 -10 2 -21 -1 -24z m-4056 17 c0 -5 -4 -10 -10 -10
-5 0 -10 5 -10 10 0 6 5 10 10 10 6 0 10 -4 10 -10z m3820 0 c0 -5 -5 -10 -11
-10 -5 0 -7 5 -4 10 3 6 8 10 11 10 2 0 4 -4 4 -10z m497 -97 c-14 -31 -19
-24 -11 16 4 21 10 28 14 20 5 -7 3 -23 -3 -36z m-4502 7 c3 -5 1 -10 -4 -10
-6 0 -11 5 -11 10 0 6 2 10 4 10 3 0 8 -4 11 -10z m4195 0 c0 -5 -4 -10 -10
-10 -5 0 -10 5 -10 10 0 6 5 10 10 10 6 0 10 -4 10 -10z m-4346 -7 c-5 -5 -12
-12 -16 -18 -4 -6 -8 -2 -8 8 0 9 7 17 17 17 9 0 12 -3 7 -7z m4506 -8 c0 -8
-4 -15 -9 -15 -5 0 -11 7 -15 15 -3 9 0 15 9 15 8 0 15 -7 15 -15z m-30 -25
c0 -5 -5 -10 -11 -10 -5 0 -7 5 -4 10 3 6 8 10 11 10 2 0 4 -4 4 -10z m-4460
-10 c0 -5 -2 -10 -4 -10 -3 0 -8 5 -11 10 -3 6 -1 10 4 10 6 0 11 -4 11 -10z"/>
</g>
</svg>
